<?xml version="1.0" encoding="utf-8"?>
<?xml-stylesheet type="text/xsl" href="rss1.xsl"?>
<rss version="2.0" xmlns:atom="http://www.w3.org/2005/Atom" xmlns:content="http://purl.org/rss/1.0/modules/content/" xmlns:dc="http://purl.org/dc/elements/1.1/" xmlns:media="http://search.yahoo.com/mrss/">
<channel>
 <title>Getty</title>
 <link>http://www.gettyimg.com/</link>
 <atom:link href="http://www.gettyimg.com/" rel="self" type="application/rss+xml" />

 
                <item>
                <title><![CDATA[【HD Live Performances】HDTV - Tate McRae - Greedy + Grave (Saturday Night Live, USA, 18-11-2023) [1080p59.94]]]></title>
                <link><![CDATA[https://sharemania.us/threads/tate-mcrae-greedy-grave-saturday-night-live-usa-18-11-2023-1080p59-94.235577/]]></link>
                <description><![CDATA[<article>
<blockquote class="messageText SelectQuoteContainer ugc baseHtml">
This is a processed version (using Avisynth) of <a href="https://sharemania.us/threads/tate-mcrae-grave-greedy-live-saturday-night-live-hdtv-mpeg2-1080i-dd5-1-ilya2129.233791/" class="internalLink">this video</a>: I deinterlaced it with QTGMC (double frame rate), deblocked with Deblock_QED and slightly denoised with TTempSmooth. The audio tracks are identical. I think it's an improvement over the original.<br>
<br>
<img src="https://i.postimg.cc/mrFBDymy/Tate-Mc-Rae-Greedy-Grave-Saturday-Night-Live-USA-18-11-2023-mkv.jpg" class="bbCodeImage LbImage" alt="[​IMG]" data-url="https://i.postimg.cc/mrFBDymy/Tate-Mc-Rae-Greedy-Grave-Saturday-Night-Live-USA-18-11-2023-mkv.jpg" style=""><br>
<br>
<div class="bbCodeBlock bbCodeVfcHH HiddenContent">
<div class="attribution type">Hidden Content:</div>
<blockquote>You must reply before you can see the hidden data contained here.</blockquote>
</div>
<div class="messageTextEndMarker">&nbsp;</div>
</blockquote>
</article>]]></description>
                <author><![CDATA[caladan]]></author>
                </item>

                
                <item>
                <title><![CDATA[【Music Videos】Warrant - Heaven (Audio Dual 5.1+2.0) (Clean)]]></title>
                <link><![CDATA[https://sharemania.us/threads/warrant-heaven-audio-dual-5-1-2-0-clean.235578/]]></link>
                <description><![CDATA[<article>
<blockquote class="messageText SelectQuoteContainer ugc baseHtml">
thanks
<div class="messageTextEndMarker">&nbsp;</div>
</blockquote>
</article>]]></description>
                <author><![CDATA[DJ-RoGeRs-BS]]></author>
                </item>

                
                <item>
                <title><![CDATA[【Requests】[REQ AUD] - BBC Radio 1's Live Lounge 2015]]></title>
                <link><![CDATA[https://sharemania.us/threads/bbc-radio-1s-live-lounge-2015.235576/]]></link>
                <description><![CDATA[<article>
<blockquote class="messageText SelectQuoteContainer ugc baseHtml">
thank you <img src="styles/default/xenforo/smilies/big_smile-48.png" class="mceSmilie" alt=":)" title="Smile    :)">
<div class="messageTextEndMarker">&nbsp;</div>
</blockquote>
</article>]]></description>
                <author><![CDATA[Lonely Productions]]></author>
                </item>

                
                <item>
                <title><![CDATA[【Singles (lossless)】FLAC - Jennifer Lopez - Can't Get Enough [FLAC 24bit]]]></title>
                <link><![CDATA[https://sharemania.us/threads/jennifer-lopez-cant-get-enough-flac-24bit.235579/]]></link>
                <description><![CDATA[<article>
<blockquote class="messageText SelectQuoteContainer ugc baseHtml">
<img src="https://i.ibb.co/vJTzjcj/Warrant-Heaven-5-1-2-0-VOB-thumbs-2024-01-10-22-06-23.jpg" class="bbCodeImage LbImage" alt="[​IMG]" data-url="https://i.ibb.co/vJTzjcj/Warrant-Heaven-5-1-2-0-VOB-thumbs-2024-01-10-22-06-23.jpg" style=""> <br>
<br>
<div class="ToggleTriggerAnchor bbCodeSpoilerContainer">
<button type="button" class="button bbCodeSpoilerButton ToggleTrigger Tooltip JsOnly" data-target="> .SpoilerTarget"><span>Spoiler: <span class="SpoilerTitle">MediaInfo</span></span></button>
<div class="SpoilerTarget bbCodeSpoilerText">Warrant - Heaven (5.1+2.0).VOB<br>
Format : MPEG-PS<br>
File size : 266 MiB<br>
Duration : 4 min 9 s<br>
Overall bit rate mode : Variable<br>
Overall bit rate : 8 954 kb/s<br>
Frame rate : 29.970 FPS<br>
<br>
Video<br>
ID : 224 (0xE0)<br>
Format : MPEG Video<br>
Format version : Version 2<br>
Format profile : Main@Main<br>
Format settings : BVOP<br>
Format settings, BVOP : Yes<br>
Format settings, Matrix : Default<br>
Format settings, GOP : M=3, N=13<br>
Duration : 4 min 9 s<br>
Bit rate mode : Variable<br>
Bit rate : 8 136 kb/s<br>
Maximum bit rate : 8 560 kb/s<br>
Width : 720 pixels<br>
Height : 480 pixels<br>
Display aspect ratio : 4:3<br>
Frame rate : 29.970 (30000/1001) FPS<br>
Standard : NTSC<br>
Color space : YUV<br>
Chroma subsampling : 4:2:0<br>
Bit depth : 8 bits<br>
Scan type : Progressive<br>
Compression mode : Lossy<br>
Bits/(Pixel*Frame) : 0.785<br>
Time code of first frame : 00:00:00;00<br>
Time code source : Group of pictures header<br>
GOP, Open/Closed : Closed<br>
Stream size : 242 MiB (91%)<br>
<br>
Audio #1<br>
ID : 189 (0xBD)-128 (0x80)<br>
Format : AC-3<br>
Format/Info : Audio Coding 3<br>
Commercial name : Dolby Digital<br>
Muxing mode : DVD-Video<br>
Duration : 4 min 6 s<br>
Bit rate mode : Constant<br>
Bit rate : 448 kb/s<br>
Channel(s) : 6 channels<br>
Channel layout : L R C LFE Ls Rs<br>
Sampling rate : 48.0 kHz<br>
Frame rate : 31.250 FPS (1536 SPF)<br>
Compression mode : Lossy<br>
Delay relative to video : 40 ms<br>
Stream size : 13.1 MiB (5%)<br>
Service kind : Complete Main<br>
<br>
Audio #2<br>
ID : 189 (0xBD)-129 (0x81)<br>
Format : AC-3<br>
Format/Info : Audio Coding 3<br>
Commercial name : Dolby Digital<br>
Muxing mode : DVD-Video<br>
Duration : 4 min 6 s<br>
Bit rate mode : Constant<br>
Bit rate : 192 kb/s<br>
Channel(s) : 2 channels<br>
Channel layout : L R<br>
Sampling rate : 48.0 kHz<br>
Frame rate : 31.250 FPS (1536 SPF)<br>
Compression mode : Lossy<br>
Stream size : 5.63 MiB (2%)<br>
Service kind : Complete Main</div>
</div><br>
<div class="bbCodeBlock bbCodeVfcHH HiddenContent">
<div class="attribution type">Hidden Content:</div>
<blockquote>You must reply before you can see the hidden data contained here.</blockquote>
</div>
<div class="messageTextEndMarker">&nbsp;</div>
</blockquote>
</article>]]></description>
                <author><![CDATA[defang]]></author>
                </item>

                </channel></rss>